<svg aria-hidden="true" style="position: absolute; width: 0; height: 0; overflow: hidden;" version="1.1" xmlns="http://www.w3.org/2000/svg" xmlns:xlink="http://www.w3.org/1999/xlink">
<defs>
<symbol id="icon-nerds-logo" viewBox="0 0 78 32">
<path d="M23.287 12.015c-0.742-0.819-0.402-2.405 1.392-3.268 0.897-0.441 2.153-0.839 2.987 0.882 1.256 2.57-2.608 4.315-4.378 2.385zM20.412 10.667c-0.766-1.585-1.915-1.217-2.739-0.81-1.644 0.79-1.959 2.25-1.28 3.001 1.629 1.77 5.173 0.17 4.019-2.191zM76.577 24.422c-0.591 0.078-1.212 0.131-1.804 0.184h-0.019v0.029c-1.173 8.417-12.698 9.809-12.984 3.2-0.131-2.991 5.624-3.855 11.345-4.412 0.097-2.618-1.731-2.032-3.951-1.314-2.337 0.747-5.105 1.639-6.526-0.912-2.434-4.378 7.093-8.698 8.111-7.806 3.079 2.696 1.687 3.195-0.582 4.005l-0.087 0.034c-4.606 1.653-2.812 1.988-2.187 1.808 3.67-1.096 6.962-0.504 6.938 4.029l0.878-0.063c0.32-0.019 0.63-0.039 0.945-0.068 1.115-0.102 1.193 1.183-0.078 1.285zM72.931 24.79c-4.422 0.499-8.247 1.183-7.83 2.594 0.834 2.705 6.584 3.307 7.83-2.594zM57.11 16.596c0.485-3.37 5.784-1.629 4.412-0.926-0.97 0.495-1.6 2.216-2.182 3.791l-0.036 0.119c-0.244 0.707-0.535 1.393-0.823 1.957-0.31 0.558-1.265 0.737-1.425 0.727-0.335-0.019-0.344-2.928 0.053-5.668zM14.002 30.385c0.999-0.684 0.301-2.046-0.785-1.285-0.863 0.63-0.781-0.461 0.194-8.499 0.562-4.495-2.434-5.561-6.032-3.297-1.324 0.819-2.487 2.671-3.302 4.931l0.007-0.092c0.125-1.34 0.365-2.647 0.672-3.748 0.839-3.219 0.218-4.936-3.675-3.869-0.514 0.131-1.081 3.079-1.081 7.355 0 5.207 0.402 9.047 0.916 9.43 1.484 1.115 4.024 0.296 3.859-0.495-0.194-0.766-0.359-1.532-0.485-2.318 0.029-3.239 0.892-6.642 2.274-7.951 1.052-1.009 2.216-0.708 1.513 4.577-0.975 7.278 2.080 7.845 5.93 5.261zM20.247 31.583c-3.753-0.407-6.080-3.758-5.188-8.776 0.97-5.421 8.761-8.882 11.249-5.013 1.808 2.807-1.057 7.767-5.624 9.595l-0.242 0.082c0.941 2.507 3.19 3.622 5.353 1.139 1.028-1.144 1.755-0.65 0.863 0.766-1.052 1.687-3.787 2.507-6.405 2.206zM20.058 25.779c2.841-2.017 3.787-6.458 3.006-7.709-0.839-1.309-2.463 0.732-3.030 5.692-0.053 0.708-0.053 1.392 0.029 2.017zM37.396 24.752c-1.164 0.354-2.516 0.029-2.516-1.309 0-0.49 0.431-1.634 1.755-2.288-0.078-0.926-0.674-1.169-1.105-0.815-1.624 1.251-3.598 5.939-3.084 9.319 0.029 0.078 0.029 0.16 0.029 0.242l0.005 0.029c0.082 0.291 0.16 0.582 0.262 0.873 0.272 0.761-2.376 1.605-3.864 0.461-0.514-0.383-0.785-3.379-0.785-8.582 0-4.276 0.95-8.068 1.464-8.204 3.108-0.848 4.916 0.625 3.947 3.515-0.572 1.634-1.086 3.297-1.377 5.042 1.188-3.244 3.161-6.24 4.752-7.030 2.846-1.416 4.897 0.465 4.301 3.787-0.024 0.053-0.053 0.194-0.053 0.218-0.019 0.175-0.131 0.591-0.179 0.79-0.029 0.107-0.039 0.15-0.010 0.053-0.252 0.8-0.431 1.105-0.65 1.445-0.776 1.217-1.891 2.128-2.89 2.453z"></path>
<path d="M54.885 13.168c-0.228 1.212-0.412 2.424-0.533 3.651-0.519 4.878-0.301 9.212 0.291 11.147 0.354 1.033 1.678 2.395 2.948 0.979 1.382-1.552 2.895-0.655 1.057 1.173-1.135 1.115-3.248 1.881-5.353 1.663-1.518-0.194-2.434-1.173-2.977-2.672-0.202 0.429-0.455 0.797-0.758 1.117l0.002-0.002c-1.023 1.067-2.269 1.663-3.864 1.503-3.219-0.359-5.11-3.845-4.218-8.805 0.945-5.232 5.489-7.137 8.111-5.75l0.16-1.988 0.029-0.204 0.024-0.204c-0.795 0.175-1.6 0.33-2.405 0.461-11.622 1.939-7.622-7.549-4.785-10.027 3.219-2.778 3.569-0.902 2.57-0.271-1.784 1.144-2.57 7.709 2.541 7.709 0.839 0 1.624-0.049 2.405-0.136 1.6-8.882 6.439-13.188 10.356-11.772 4.354 1.581 3.893 8.504-5.595 12.427zM49.59 24.999c-0.107-1.721-0.107-3.656-0.082-5.644l0.015-0.378 0.015-0.33c-1.624-0.737-3.219 1.77-3.627 5.232-0.456 4.058 1.358 6.211 2.381 5.232 0.785-0.79 1.193-3.297 1.299-4.116zM61.265 4.068c-0.863-1.28-4.024 0.271-5.867 6.948 4.625-2.206 6.463-6.022 5.867-6.948z"></path>
</symbol>
<symbol id="icon-cart-icon" viewBox="0 0 32 32">
<path d="M9.6 32c1.767 0 3.2-1.433 3.2-3.2s-1.433-3.2-3.2-3.2c-1.767 0-3.2 1.433-3.2 3.2s1.433 3.2 3.2 3.2z"></path>
<path d="M26.667 32c1.767 0 3.2-1.433 3.2-3.2s-1.433-3.2-3.2-3.2c-1.767 0-3.2 1.433-3.2 3.2s1.433 3.2 3.2 3.2z"></path>
<path d="M32 4.267h-23.317l-0.9-4.267h-7.782v4.267h4.333l4.235 19.2h23.433v-4.267h-11.859l11.859-4.371v-10.562z"></path>
</symbol>
<symbol id="icon-social-insta" viewBox="0 0 32 32">
<path d="M4.571 0h22.857c2.525 0 4.571 2.047 4.571 4.571v0 22.857c0 2.525-2.047 4.571-4.571 4.571v0h-22.857c-2.525 0-4.571-2.047-4.571-4.571v0-22.857c0-2.525 2.047-4.571 4.571-4.571v0zM21.333 16c0-2.946-2.388-5.333-5.333-5.333s-5.333 2.388-5.333 5.333v0c0 2.946 2.388 5.333 5.333 5.333s5.333-2.388 5.333-5.333v0zM4.571 27.429h22.857v-13.714h-1.829l-0.015-0.069c0.209 0.801 0.32 1.641 0.32 2.507 0 5.47-4.434 9.905-9.905 9.905s-9.905-4.434-9.905-9.905c0-0.866 0.111-1.706 0.305-2.438h-1.829v13.714zM21.333 10.667h6.095v-6.095h-6.095v6.095z"></path>
</symbol>
<symbol id="icon-social-fb" viewBox="0 0 17 32">
<path d="M17.455 5.818v-5.818h-5.818c-3.213 0-5.818 2.605-5.818 5.818v0 5.818h-5.818v5.818h5.818v14.545h5.818v-14.545h5.818v-5.818h-5.818v-5.818h5.818z"></path>
</symbol>
<symbol id="icon-social-vk" viewBox="0 0 58 32">
<path d="M34.347 24.533c2.133-0.64 4.693 4.267 7.467 6.4 2.133 1.28 3.627 1.067 3.627 1.067h7.467s3.84-0.427 2.133-3.413c0-0.213-1.067-2.133-5.547-6.4-4.693-4.267-4.053-3.84 1.493-11.307 3.413-4.48 4.907-7.467 4.267-8.533-0.213-1.28-2.773-0.853-2.773-0.853h-8.533c-0.64 0-1.28 0.213-1.707 1.067 0 0-1.28 3.627-2.987 6.613-3.627 6.4-5.12 6.827-5.76 6.4-1.493-1.067-1.067-3.84-1.067-5.76 0-6.187 0.853-8.747-1.92-9.387-0.853-0.213-1.493-0.427-3.84-0.427-2.987 0-5.547 0-6.827 0.64-1.067 0.64-1.707 1.493-1.28 1.707 0.427 0 1.707 0.213 2.347 1.28 0.853 1.067 0.853 3.627 0.853 3.627s0.64 7.467-1.067 8.32c-1.067 0.64-2.773-0.64-5.973-6.4-1.707-2.987-2.987-6.4-2.987-6.4l-0.64-0.64-1.28-0.64h-8.107s-1.067 0-1.493 0.427c-0.427 0.64 0 1.493 0 1.493s6.187 14.72 13.227 22.187c6.4 6.613 13.653 6.4 13.653 6.4h3.413s0.853-0.213 1.493-0.853c0.427-0.427 0.427-1.493 0.427-1.493s0-4.267 2.133-5.12z"></path>
</symbol>
</defs>
</svg>
